<svg xmlns="http://www.w3.org/2000/svg" width="96" height="96" viewBox="0 0 1024 1024" version="1.1"><path d="M 387.500 225.561 C 347.283 229.304, 315.008 237.800, 281.500 253.466 C 217.096 283.578, 162.500 340.038, 134.486 405.500 C 109.468 463.962, 104.034 530.003, 119.068 592.874 C 125.370 619.228, 141.722 658.006, 155.597 679.500 C 202.296 751.844, 271.379 799.342, 352.500 814.880 C 365.961 817.458, 370.141 817.797, 370.695 816.352 C 370.985 815.598, 367.743 809.698, 363.493 803.240 C 354.911 790.204, 340.177 760.896, 334.466 745.500 C 329.216 731.350, 324.454 714.454, 321.814 700.612 L 319.547 688.724 313.638 685.112 C 296.379 674.562, 279.540 660.771, 267.897 647.648 C 206.755 578.740, 204.296 476.204, 262.056 404 C 281.118 380.171, 309.365 359.195, 337.500 347.977 C 360.785 338.692, 378.198 335.034, 402.646 334.291 C 435.913 333.280, 463.520 339.468, 493.198 354.588 C 496.882 356.464, 500.726 358, 501.740 358 C 502.754 358, 508.787 356.026, 515.146 353.614 C 547.386 341.382, 575.508 336.152, 613.750 335.277 C 627.087 334.972, 638 334.378, 638 333.956 C 638 331.170, 608.694 301.738, 595 290.771 C 552.573 256.793, 502.777 235.442, 447.357 227.464 C 437.140 225.993, 396.678 224.707, 387.500 225.561 M 599.534 459.628 C 593.502 460.401, 588.170 461.430, 587.684 461.916 C 587.172 462.428, 587.453 465.052, 588.351 468.150 C 594.298 488.656, 596.005 501.136, 595.982 523.924 C 595.964 541.994, 594.758 553.039, 591.170 568 C 580.392 612.948, 551.556 653.560, 511.500 680.203 C 499.470 688.205, 476.991 698.986, 463.723 703.118 L 452.945 706.474 453.597 709.487 C 453.956 711.144, 455.824 715.650, 457.749 719.500 C 469.294 742.591, 485.874 763.527, 504.297 778.277 C 517.341 788.721, 525.474 794, 528.521 794 C 529.968 794, 536.405 791.309, 542.826 788.020 C 585.541 766.138, 622.130 734.568, 650.635 695 C 686.682 644.962, 706.046 584.726, 705.927 523 C 705.889 503.246, 703.936 480.832, 702.055 478.566 C 698.401 474.163, 669.497 464.090, 652 461.121 C 632.460 457.806, 617.165 457.371, 599.534 459.628" stroke="none" fill="#0fd68c" fill-rule="evenodd"/><path d="M 596.500 89.581 C 522.682 95.039, 458.962 123.098, 406.382 173.299 C 391.306 187.693, 366.522 217.855, 368.305 219.639 C 368.572 219.905, 373.450 219.607, 379.145 218.975 C 394.163 217.310, 428.053 217.552, 443.199 219.432 C 462.879 221.875, 479.912 225.447, 496.332 230.574 L 504.165 233.019 512.939 227.592 C 563.185 196.511, 620.846 189.486, 673.500 208.031 C 750.660 235.207, 801.344 306.646, 801.114 387.903 C 801.075 401.798, 800.853 404.419, 798.428 419.538 C 793.708 448.980, 780.196 479.251, 760.505 504.500 C 751.979 515.433, 734.466 532.042, 722.485 540.556 L 712.556 547.612 711.292 559.056 C 707.690 591.682, 697.463 626.054, 682.300 656.500 C 678.192 664.750, 673.954 672.927, 672.882 674.671 C 671.811 676.415, 671.326 678.083, 671.804 678.379 C 673.042 679.144, 696.386 672.896, 710.082 668.135 C 789.961 640.366, 854.193 580.425, 887.411 502.654 C 902.925 466.332, 910.253 429.882, 910.361 388.500 C 910.462 349.876, 904.815 317.145, 892.245 283.500 C 865.145 210.964, 810.794 151.407, 741.682 118.517 C 710.548 103.701, 682.964 95.722, 646.500 90.984 C 638.040 89.884, 604.949 88.956, 596.500 89.581 M 396 341.568 C 367.348 344.779, 346.772 350.681, 325.722 361.724 L 316.500 366.562 316.194 384.531 C 315.001 454.587, 338.800 521.888, 383.901 576 C 411.242 608.804, 442.797 633.845, 480.850 652.934 C 490.814 657.932, 513.218 667, 515.604 667 C 517.681 667, 523.874 662.019, 534.869 651.503 C 550.171 636.869, 562.299 620.021, 571.616 600.456 C 577.685 587.713, 582.509 574.067, 581.319 573.011 C 580.868 572.611, 577.575 571.704, 574 570.997 C 553.596 566.958, 521.949 553.109, 504.689 540.667 C 462.704 510.402, 436.891 469.279, 427.911 418.353 C 424.946 401.534, 424.952 372.430, 427.925 355.565 C 429.083 349, 429.653 343.253, 429.193 342.793 C 428.295 341.895, 401.804 340.917, 396 341.568" stroke="none" fill="#e40158" fill-rule="evenodd"/><path d="M 1 512 L 1 1023 512 1023 L 1023 1023 1023 512 L 1023 1 512 1 L 1 1 1 512 M 596.500 89.581 C 564.427 91.952, 532.099 99.036, 505.337 109.557 C 479.231 119.821, 449.231 137.292, 426.481 155.480 C 403.560 173.805, 365.720 216.053, 369.153 219.486 C 369.464 219.797, 373.944 219.562, 379.109 218.963 C 393.377 217.309, 428.315 217.580, 443.458 219.462 C 459.331 221.435, 477.891 225.133, 489.667 228.669 C 503.872 232.935, 504.385 232.903, 513.607 227.184 C 562.974 196.565, 621.158 189.596, 673.500 208.031 C 750.660 235.207, 801.344 306.646, 801.114 387.903 C 801.075 401.798, 800.853 404.419, 798.428 419.538 C 793.708 448.980, 780.196 479.251, 760.505 504.500 C 751.979 515.433, 734.466 532.042, 722.485 540.556 L 712.556 547.612 711.292 559.056 C 707.645 592.091, 697.477 626.036, 681.804 657.500 C 677.421 666.300, 673.421 673.928, 672.917 674.450 C 671.314 676.111, 671.927 678, 674.069 678 C 677.602 678, 694.897 673.296, 708.500 668.635 C 789.399 640.916, 853.925 581.053, 887.411 502.654 C 902.925 466.332, 910.253 429.882, 910.361 388.500 C 910.462 349.876, 904.815 317.145, 892.245 283.500 C 865.145 210.964, 810.794 151.407, 741.682 118.517 C 710.548 103.701, 682.964 95.722, 646.500 90.984 C 638.040 89.884, 604.949 88.956, 596.500 89.581 M 387.500 225.561 C 347.283 229.304, 315.008 237.800, 281.500 253.466 C 217.096 283.578, 162.500 340.038, 134.486 405.500 C 109.468 463.962, 104.034 530.003, 119.068 592.874 C 125.370 619.228, 141.722 658.006, 155.597 679.500 C 199.474 747.472, 263.070 793.602, 337.500 811.446 C 355.318 815.717, 356.402 815.930, 363.865 816.624 C 369.619 817.159, 370.997 817.017, 370.986 815.894 C 370.978 815.127, 367.549 809.325, 363.365 803 C 354.921 790.235, 340.182 760.909, 334.466 745.500 C 329.216 731.350, 324.454 714.454, 321.814 700.612 L 319.547 688.724 313.638 685.112 C 296.379 674.562, 279.540 660.771, 267.897 647.648 C 206.755 578.740, 204.296 476.204, 262.056 404 C 281.118 380.171, 309.365 359.195, 337.500 347.977 C 360.785 338.692, 378.198 335.034, 402.646 334.291 C 435.913 333.280, 463.520 339.468, 493.198 354.588 C 496.882 356.464, 500.726 358, 501.740 358 C 502.754 358, 508.787 356.026, 515.146 353.614 C 547.195 341.454, 575.484 336.167, 613.250 335.278 C 632.405 334.828, 637 334.455, 637 333.351 C 637 330.149, 610.036 302.813, 595 290.771 C 552.573 256.793, 502.777 235.442, 447.357 227.464 C 437.140 225.993, 396.678 224.707, 387.500 225.561 M 396 341.568 C 367.348 344.779, 346.772 350.681, 325.722 361.724 L 316.500 366.562 316.194 384.531 C 315.001 454.587, 338.800 521.888, 383.901 576 C 411.242 608.804, 442.797 633.845, 480.850 652.934 C 490.814 657.932, 513.218 667, 515.604 667 C 517.681 667, 523.874 662.019, 534.869 651.503 C 553.473 633.710, 567.110 613.133, 577.367 587.376 C 579.365 582.358, 581 576.928, 581 575.309 C 581 572.473, 580.757 572.320, 574.250 571.055 C 553.913 567.101, 522.048 553.180, 504.689 540.667 C 462.704 510.402, 436.891 469.279, 427.911 418.353 C 424.946 401.534, 424.952 372.430, 427.925 355.565 C 429.083 349, 429.653 343.253, 429.193 342.793 C 428.295 341.895, 401.804 340.917, 396 341.568 M 595.500 343.045 C 539.864 348.165, 488.055 367.935, 443.239 401.149 L 433.978 408.012 434.593 412.256 C 438.519 439.337, 447.632 463.981, 461.607 485.312 C 469.036 496.652, 479.590 510, 481.128 510 C 481.677 510, 486.711 505.940, 492.313 500.977 C 497.916 496.014, 506.550 489.046, 511.500 485.493 C 523.027 477.217, 546.531 465.319, 560.563 460.655 C 621.105 440.534, 687.136 452.010, 737.350 491.380 C 741.832 494.895, 746.591 498.947, 747.924 500.385 C 749.258 501.823, 750.833 502.991, 751.424 502.980 C 752.869 502.952, 761.144 491.658, 768.216 480.062 C 781.090 458.950, 791.071 428.546, 792.693 405.500 L 793.256 397.500 781.378 389.689 C 745.746 366.258, 702.380 350.321, 658.386 344.488 C 643.982 342.579, 609.233 341.782, 595.500 343.045 M 599.534 459.628 C 593.502 460.401, 588.170 461.430, 587.684 461.916 C 587.172 462.428, 587.453 465.052, 588.351 468.150 C 594.298 488.656, 596.005 501.136, 595.982 523.924 C 595.964 541.994, 594.758 553.039, 591.170 568 C 580.392 612.948, 551.556 653.560, 511.500 680.203 C 499.470 688.205, 476.991 698.986, 463.723 703.118 L 452.945 706.474 453.597 709.487 C 453.956 711.144, 455.824 715.650, 457.749 719.500 C 469.294 742.591, 485.874 763.527, 504.297 778.277 C 517.341 788.721, 525.474 794, 528.521 794 C 529.968 794, 536.405 791.309, 542.826 788.020 C 585.541 766.138, 622.130 734.568, 650.635 695 C 686.682 644.962, 706.046 584.726, 705.927 523 C 705.889 503.246, 703.936 480.832, 702.055 478.566 C 698.401 474.163, 669.497 464.090, 652 461.121 C 632.460 457.806, 617.165 457.371, 599.534 459.628 M 884.027 527.138 C 869.381 556.655, 843.684 589.987, 818.215 612.500 L 808.034 621.500 808.634 634 C 810.724 677.569, 795.187 724.019, 766.990 758.500 C 758.447 768.946, 740.675 785.617, 729.966 793.228 C 717.335 802.205, 693.958 814.083, 679.354 818.946 C 591.148 848.311, 491.912 806.384, 451.038 722.483 C 439.025 697.825, 432.165 667.830, 431.944 639 L 431.887 631.500 425.995 627.211 C 401.182 609.149, 368.416 572.350, 351.887 543.982 C 348.011 537.331, 344.945 533.115, 344.089 533.261 C 341.169 533.756, 330.965 568.951, 327.059 592 C 323.673 611.981, 322.420 637.647, 323.805 658.661 C 325.225 680.213, 326.815 690.462, 332.037 711.695 C 345.655 767.074, 376.714 818.807, 420.354 858.798 C 464.431 899.190, 518.608 924.763, 580 934.157 C 599.476 937.137, 640.067 937.396, 658.500 934.657 C 684.036 930.864, 707.006 924.933, 727.425 916.862 C 839.172 872.693, 913.841 768.350, 917.679 651 C 918.838 615.558, 914.297 582.723, 903.404 547.774 C 899.458 535.118, 891.702 515.994, 890.538 516.053 C 889.967 516.082, 887.037 521.070, 884.027 527.138" stroke="none" fill="#ffffff" fill-rule="evenodd"/><path d="M 595.500 343.045 C 539.864 348.165, 488.055 367.935, 443.239 401.149 L 433.978 408.012 434.593 412.256 C 439.583 446.678, 453.495 478.034, 475.412 504.261 L 481.062 511.022 491.781 501.480 C 497.676 496.232, 506.550 489.034, 511.500 485.485 C 523.041 477.209, 546.549 465.313, 560.563 460.655 C 621.105 440.534, 687.136 452.010, 737.350 491.380 C 741.832 494.895, 746.591 498.947, 747.924 500.385 C 749.258 501.823, 750.833 502.991, 751.424 502.980 C 752.016 502.968, 754.741 499.931, 757.480 496.230 C 776.966 469.899, 789.124 438.919, 792.831 406.152 C 793.826 397.355, 794.446 398.196, 780 388.761 C 745.353 366.132, 701.658 350.225, 658.386 344.488 C 643.982 342.579, 609.233 341.782, 595.500 343.045 M 884.192 527.024 C 868.283 558.109, 843.662 590.006, 818.215 612.500 L 808.034 621.500 808.634 634 C 810.724 677.569, 795.187 724.019, 766.990 758.500 C 758.447 768.946, 740.675 785.617, 729.966 793.228 C 717.335 802.205, 693.958 814.083, 679.354 818.946 C 591.148 848.311, 491.912 806.384, 451.038 722.483 C 438.938 697.646, 431.373 664.127, 432.111 638.627 C 432.264 633.347, 431.956 631.555, 430.780 630.897 C 425.637 628.018, 410.303 614.477, 396.462 600.591 C 378.592 582.662, 362.773 562.564, 351.508 543.478 C 347.783 537.165, 344.369 532, 343.922 532 C 342.836 532, 334.587 557.396, 331.502 570.238 C 324.556 599.149, 321.897 629.701, 323.805 658.661 C 325.225 680.213, 326.815 690.462, 332.037 711.695 C 345.655 767.074, 376.714 818.807, 420.354 858.798 C 464.431 899.190, 518.608 924.763, 580 934.157 C 599.476 937.137, 640.067 937.396, 658.500 934.657 C 684.036 930.864, 707.006 924.933, 727.425 916.862 C 839.172 872.693, 913.841 768.350, 917.679 651 C 918.859 614.923, 914.163 581.714, 902.842 546.089 C 899.714 536.246, 892.279 517.103, 891.052 515.732 C 890.674 515.310, 887.587 520.391, 884.192 527.024" stroke="none" fill="#046a87" fill-rule="evenodd"/></svg>