<svg xmlns="http://www.w3.org/2000/svg" width="96" height="96" viewBox="0 0 1024 1024" version="1.1"><path d="M 479 121.081 C 429.482 125.832, 385.260 138.092, 342.415 158.946 C 263.626 197.295, 200.912 258.693, 161.564 336 C 142.487 373.482, 129.419 414.476, 123.576 455.176 C 120.279 478.138, 119.707 486.664, 119.697 513 C 119.687 539.390, 120.088 545.230, 123.604 570 C 133.407 639.046, 164.750 708.601, 210.799 763.500 C 224.093 779.350, 250.608 805.417, 265.500 817.279 C 304.393 848.257, 345.616 870.736, 390.882 885.651 C 416.187 893.988, 435.619 898.288, 470 903.155 C 482.665 904.948, 541.883 904.967, 554.500 903.182 C 573.760 900.457, 577.832 899.800, 587.500 897.857 C 697.408 875.771, 794.790 806.408, 851.239 710 C 878.682 663.130, 895.669 611.994, 902.642 555.258 C 904.695 538.555, 904.993 488.967, 903.134 473.500 C 897 422.481, 885.650 383.301, 864.493 340.112 C 829.965 269.631, 775.238 211.439, 705.500 171.057 C 666.693 148.586, 615.040 130.719, 569.500 124.016 C 543.981 120.260, 501.815 118.892, 479 121.081 M 476.500 203.081 C 449.903 206.227, 417.374 214.761, 394.075 224.707 C 335.572 249.681, 288.153 288.895, 253.451 341 C 225.747 382.598, 209.378 426.354, 203.333 474.971 C 201.082 493.078, 201.122 534.642, 203.406 550.500 C 207.612 579.710, 213.293 601.637, 222.966 626 C 247.168 686.959, 289.959 738.329, 346.815 774.681 C 384.583 798.827, 426.754 814.060, 475.500 821.163 C 487.417 822.899, 537.513 822.913, 548.500 821.182 C 574.899 817.025, 574.688 817.068, 593 812.125 C 647.753 797.347, 702.636 763.799, 740.824 721.763 C 775.821 683.240, 800.576 637.849, 813.503 588.500 C 820.061 563.468, 822.370 543.665, 822.368 512.500 C 822.366 483.345, 820.890 468.786, 815.437 444.107 C 805.943 401.143, 783.454 354.985, 753.994 318 C 742.360 303.394, 716.873 278.294, 702.190 266.983 C 671.668 243.469, 635.823 224.775, 601.500 214.469 C 567.219 204.177, 549.361 203.483, 532 211.769 C 524.440 215.378, 512.191 227.676, 508.127 235.740 C 502.067 247.761, 502.031 248.245, 502.015 317.715 C 502.001 376.902, 501.889 380.987, 500.250 381.828 C 499.288 382.321, 494.360 383.006, 489.299 383.348 C 450.962 385.944, 410.347 406.184, 384.868 435.390 C 366.306 456.667, 354.834 479.542, 348.956 507 C 346.141 520.148, 345.148 546.324, 346.983 559 C 352.285 595.614, 366.571 624.512, 392 650.057 C 412.851 671.003, 435.567 684.177, 463.500 691.523 C 479.245 695.663, 484.574 695.964, 542.395 695.983 L 598.289 696 597.677 689.443 C 594.773 658.342, 575.149 634.153, 544.946 624.443 C 540.685 623.073, 534.061 622.535, 514.500 621.971 C 493.644 621.369, 488.174 620.893, 481.500 619.102 C 466.828 615.163, 456.344 609.237, 445.153 598.557 C 433.901 587.819, 427.163 576.494, 422.545 560.559 C 420.415 553.210, 420 549.712, 420 539.131 C 420 519.508, 424.868 504.399, 435.874 489.860 C 447.353 474.697, 464.691 463.155, 482 459.153 C 484.475 458.581, 487.850 457.804, 489.500 457.426 C 491.150 457.048, 503.075 456.430, 516 456.052 C 538.437 455.395, 539.794 455.242, 546.012 452.671 C 559.300 447.176, 568.904 436.782, 573.647 422.763 L 576 415.808 576 321.463 C 576 269.573, 576.371 226.889, 576.824 226.609 C 578.645 225.483, 605.855 233.755, 623.692 240.858 C 641.671 248.017, 667.916 263.255, 687 277.616 C 750.171 325.153, 790.972 393.363, 802.376 470.500 C 805.364 490.706, 806.348 511.984, 805.074 528.826 C 801.251 579.366, 787.567 622.846, 762.485 664.141 C 727.035 722.506, 667.848 769.479, 603.500 790.319 C 582.434 797.141, 574.944 798.923, 549.500 803.166 C 538.637 804.977, 487.820 804.987, 475.500 803.180 C 420.817 795.160, 374.032 775.381, 331.500 742.303 C 315.471 729.837, 292.798 707.277, 280.287 691.347 C 265.484 672.497, 247.435 640.539, 238.139 616.717 C 216.428 561.083, 212.824 498.198, 227.983 439.500 C 237.958 400.876, 254.772 366.849, 280.841 332.528 C 289.790 320.746, 316.859 293.255, 329 283.618 C 364.495 255.442, 409.485 233.737, 449 225.724 C 462.886 222.909, 467.998 222.041, 477.347 220.911 L 488.195 219.599 491.462 214.550 C 493.258 211.772, 495.914 208.409, 497.364 207.076 C 501.944 202.864, 500.947 201.985, 491.750 202.126 C 487.212 202.196, 480.350 202.626, 476.500 203.081 M 551.441 486.855 C 529.643 495.458, 515.979 515.242, 516.012 538.154 C 516.043 560.049, 527.633 578.441, 547.443 588.030 C 554.998 591.686, 557.067 592.252, 563.315 592.367 L 570.500 592.500 570.759 538.250 L 571.017 484 564.759 484.034 C 560.330 484.059, 556.436 484.883, 551.441 486.855" stroke="none" fill="#fc7e30" fill-rule="evenodd"/><path d="M 1 512 L 1 1023 512 1023 L 1023 1023 1023 512 L 1023 1 512 1 L 1 1 1 512 M 479 121.081 C 429.482 125.832, 385.260 138.092, 342.415 158.946 C 263.626 197.295, 200.912 258.693, 161.564 336 C 142.487 373.482, 129.419 414.476, 123.576 455.176 C 120.279 478.138, 119.707 486.664, 119.697 513 C 119.687 539.390, 120.088 545.230, 123.604 570 C 133.407 639.046, 164.750 708.601, 210.799 763.500 C 224.093 779.350, 250.608 805.417, 265.500 817.279 C 304.393 848.257, 345.616 870.736, 390.882 885.651 C 416.187 893.988, 435.619 898.288, 470 903.155 C 482.665 904.948, 541.883 904.967, 554.500 903.182 C 573.760 900.457, 577.832 899.800, 587.500 897.857 C 697.408 875.771, 794.790 806.408, 851.239 710 C 878.682 663.130, 895.669 611.994, 902.642 555.258 C 904.695 538.555, 904.993 488.967, 903.134 473.500 C 897 422.481, 885.650 383.301, 864.493 340.112 C 829.965 269.631, 775.238 211.439, 705.500 171.057 C 666.693 148.586, 615.040 130.719, 569.500 124.016 C 543.981 120.260, 501.815 118.892, 479 121.081 M 476.500 203.081 C 449.903 206.227, 417.374 214.761, 394.075 224.707 C 335.572 249.681, 288.153 288.895, 253.451 341 C 225.747 382.598, 209.378 426.354, 203.333 474.971 C 201.082 493.078, 201.122 534.642, 203.406 550.500 C 207.612 579.710, 213.293 601.637, 222.966 626 C 247.168 686.959, 289.959 738.329, 346.815 774.681 C 384.583 798.827, 426.754 814.060, 475.500 821.163 C 487.417 822.899, 537.513 822.913, 548.500 821.182 C 574.899 817.025, 574.688 817.068, 593 812.125 C 647.753 797.347, 702.636 763.799, 740.824 721.763 C 775.821 683.240, 800.576 637.849, 813.503 588.500 C 820.061 563.468, 822.370 543.665, 822.368 512.500 C 822.366 483.345, 820.890 468.786, 815.437 444.107 C 805.943 401.143, 783.454 354.985, 753.994 318 C 742.360 303.394, 716.873 278.294, 702.190 266.983 C 671.668 243.469, 635.823 224.775, 601.500 214.469 C 567.219 204.177, 549.361 203.483, 532 211.769 C 524.440 215.378, 512.191 227.676, 508.127 235.740 C 502.067 247.761, 502.031 248.245, 502.015 317.715 C 502.001 376.902, 501.889 380.987, 500.250 381.828 C 499.288 382.321, 494.360 383.006, 489.299 383.348 C 450.962 385.944, 410.347 406.184, 384.868 435.390 C 366.306 456.667, 354.834 479.542, 348.956 507 C 346.141 520.148, 345.148 546.324, 346.983 559 C 352.285 595.614, 366.571 624.512, 392 650.057 C 412.851 671.003, 435.567 684.177, 463.500 691.523 C 479.245 695.663, 484.574 695.964, 542.395 695.983 L 598.289 696 597.677 689.443 C 594.773 658.342, 575.149 634.153, 544.946 624.443 C 540.685 623.073, 534.061 622.535, 514.500 621.971 C 493.644 621.369, 488.174 620.893, 481.500 619.102 C 466.828 615.163, 456.344 609.237, 445.153 598.557 C 433.901 587.819, 427.163 576.494, 422.545 560.559 C 420.415 553.210, 420 549.712, 420 539.131 C 420 519.508, 424.868 504.399, 435.874 489.860 C 447.353 474.697, 464.691 463.155, 482 459.153 C 484.475 458.581, 487.850 457.804, 489.500 457.426 C 491.150 457.048, 503.075 456.430, 516 456.052 C 538.437 455.395, 539.794 455.242, 546.012 452.671 C 559.300 447.176, 568.904 436.782, 573.647 422.763 L 576 415.808 576 321.267 L 576 226.725 581.484 227.369 C 586.523 227.961, 611.331 235.880, 623.692 240.841 C 641.907 248.152, 667.949 263.279, 687 277.616 C 750.171 325.153, 790.972 393.363, 802.376 470.500 C 805.364 490.706, 806.348 511.984, 805.074 528.826 C 801.251 579.366, 787.567 622.846, 762.485 664.141 C 727.035 722.506, 667.848 769.479, 603.500 790.319 C 582.434 797.141, 574.944 798.923, 549.500 803.166 C 538.637 804.977, 487.820 804.987, 475.500 803.180 C 420.817 795.160, 374.032 775.381, 331.500 742.303 C 315.471 729.837, 292.798 707.277, 280.287 691.347 C 265.484 672.497, 247.435 640.539, 238.139 616.717 C 216.428 561.083, 212.824 498.198, 227.983 439.500 C 237.958 400.876, 254.772 366.849, 280.841 332.528 C 289.790 320.746, 316.859 293.255, 329 283.618 C 364.495 255.442, 409.485 233.737, 449 225.724 C 462.886 222.909, 467.998 222.041, 477.347 220.911 L 488.195 219.599 491.468 214.550 C 493.268 211.772, 496.149 208.178, 497.871 206.563 C 499.592 204.948, 501 203.260, 501 202.813 C 501 201.803, 485.905 201.969, 476.500 203.081 M 551.441 486.855 C 529.643 495.458, 515.979 515.242, 516.012 538.154 C 516.043 560.049, 527.633 578.441, 547.443 588.030 C 554.998 591.686, 557.067 592.252, 563.315 592.367 L 570.500 592.500 570.759 538.250 L 571.017 484 564.759 484.034 C 560.330 484.059, 556.436 484.883, 551.441 486.855" stroke="none" fill="#ffffff" fill-rule="evenodd"/></svg>