<svg xmlns="http://www.w3.org/2000/svg" width="96" height="96" viewBox="0 0 1024 1024" version="1.1"><path d="M 646.999 301.750 C 637.974 314.813, 604.435 363.300, 572.466 409.500 C 540.498 455.700, 511.705 497.325, 508.481 502 C 505.258 506.675, 494.516 522.200, 484.610 536.500 C 465.967 563.413, 435.793 607.116, 419.020 631.500 C 413.724 639.200, 398.138 661.700, 384.385 681.500 C 370.632 701.300, 357.478 720.313, 355.153 723.750 L 350.925 730 663.570 730 C 929.936 730, 976.135 729.794, 975.681 728.611 C 975.388 727.847, 963.340 710.185, 948.907 689.361 C 934.474 668.538, 918.169 644.975, 912.672 637 C 907.175 629.025, 894.735 611.025, 885.027 597 C 875.319 582.975, 859.790 560.475, 850.517 547 C 841.245 533.525, 830.200 517.550, 825.974 511.500 C 821.748 505.450, 813.815 493.975, 808.345 486 C 802.875 478.025, 785.636 453.050, 770.036 430.500 C 754.437 407.950, 730.645 373.525, 717.166 354 C 677.125 295.998, 664.531 278.013, 663.953 278.006 C 663.653 278.003, 656.023 288.688, 646.999 301.750" stroke="none" fill="#2b8b43" fill-rule="evenodd"/><path d="M 354.176 285.293 C 351.798 288.707, 346.445 296.450, 342.281 302.500 C 324.564 328.242, 282.454 389.269, 265 414.500 C 248.064 438.981, 234.333 458.885, 224.988 472.500 C 219.702 480.200, 207.106 498.425, 196.995 513 C 186.884 527.575, 174.737 545.125, 170.002 552 C 140.447 594.910, 128.813 611.759, 122.014 621.500 C 114.143 632.777, 91.574 665.357, 75.603 688.500 C 54.703 718.783, 48.121 728.788, 48.709 729.376 C 49.053 729.719, 117.159 730, 200.057 730 L 350.781 730 378.640 689.819 C 393.963 667.720, 411.017 643.083, 416.539 635.069 C 438.153 603.700, 469.641 558.123, 489.328 529.714 C 500.680 513.331, 510.380 499.156, 510.884 498.214 C 511.587 496.898, 510.473 494.644, 506.086 488.500 C 502.943 484.100, 491.870 468.125, 481.477 453 C 459.165 420.528, 457.557 418.196, 412.834 353.500 C 393.824 326, 374.497 298.005, 369.885 291.290 C 365.273 284.574, 360.825 279.081, 360 279.082 C 359.175 279.084, 356.554 281.878, 354.176 285.293" stroke="none" fill="#a3db51" fill-rule="evenodd"/><path d="M 1 512 L 1 1023 512 1023 L 1023 1023 1023 512 L 1023 1 512 1 L 1 1 1 512 M 354.176 285.293 C 351.798 288.707, 346.445 296.450, 342.281 302.500 C 324.564 328.242, 282.454 389.269, 265 414.500 C 248.064 438.981, 234.333 458.885, 224.988 472.500 C 219.702 480.200, 207.106 498.425, 196.995 513 C 186.884 527.575, 174.737 545.125, 170.002 552 C 140.447 594.910, 128.813 611.759, 122.014 621.500 C 114.213 632.677, 91.889 664.903, 75.601 688.500 C 55.861 717.099, 49 727.469, 49 728.705 C 49 729.763, 133.764 730, 512 730 C 922.294 730, 975 729.830, 975 728.504 C 975 727.682, 963.225 710.019, 948.833 689.254 C 934.441 668.489, 918.169 644.975, 912.672 637 C 907.175 629.025, 894.735 611.025, 885.027 597 C 875.319 582.975, 859.790 560.475, 850.517 547 C 841.245 533.525, 830.200 517.550, 825.974 511.500 C 821.748 505.450, 813.815 493.975, 808.345 486 C 802.875 478.025, 785.635 453.050, 770.034 430.500 C 754.433 407.950, 730.178 372.850, 716.133 352.500 C 672.891 289.844, 665.550 279.535, 663.999 279.283 C 663.050 279.129, 657.546 286.263, 649 298.721 C 605.370 362.329, 512.858 495.543, 512.150 495.781 C 511.258 496.081, 508.335 491.968, 475.002 443.500 C 463.276 426.450, 450.219 407.550, 445.986 401.500 C 438.434 390.704, 386.367 315.304, 369.882 291.290 C 365.272 284.574, 360.825 279.081, 360 279.082 C 359.175 279.084, 356.554 281.878, 354.176 285.293" stroke="none" fill="#ffffff" fill-rule="evenodd"/></svg>